<svg width="42" height="42" fill="none" xmlns="http://www.w3.org/2000/svg"><g filter="url(#filter0_d)"><path d="M38 16.885c0 4.468-1.768 8.668-4.98 11.827-3.21 3.159-7.478 4.899-12.018 4.9H21c-4.54 0-8.81-1.74-12.02-4.9C5.767 25.552 4 21.352 4 16.885c0-4.468 1.768-8.668 4.98-11.827 3.21-3.16 7.48-4.9 12.02-4.9h.002c4.54.001 8.809 1.741 12.019 4.9C36.23 8.217 38 12.418 38 16.885z" fill="#FFFEFD"/></g><path d="M27.425 14.585c-2.8 1.58-2.323 6.191.714 6.191 1.31 0 2.444-.969 2.948-2.207 1.166-2.86-1.258-5.341-3.662-3.984zm-2.875.571c3.359 0 4.365-5.613 1.173-6.535-1.454-.42-3.107.588-3.638 2.431-.596 2.066.576 4.104 2.465 4.104z" fill="#FF7236"/><path d="M23.685 25.146c-.466-.127-1.294-.208-2.16-.22-.917-.013-1.876.051-2.497.22-1.676.46-3.956-.652-3.456-2.96.463-2.134 2.126-2.012 2.52-4.035.396-2.044 1.935-3.03 3.432-2.953 1.386.072 2.734 1.055 3.101 2.954.391 2.023 2.05 1.9 2.513 4.034.502 2.31-1.783 3.416-3.453 2.96zm-5.048-9.99c.95 0 1.766-.543 2.22-1.374 1.348-2.471-.866-5.892-3.394-5.16-3.197.926-2.183 6.534 1.174 6.534z" fill="#FF7236"/><path d="M17.119 18.939c1.079-2.597-1.478-5.769-3.92-4.77-2.941 1.201-1.644 6.385 1.59 6.385 1.038 0 1.92-.628 2.33-1.615zm6.566 6.207c-.466-.127-1.294-.208-2.16-.22v-9.728c1.385.072 2.733 1.055 3.1 2.954.391 2.023 2.05 1.9 2.513 4.034.502 2.31-1.783 3.416-3.453 2.96z" fill="#FF7236"/><defs><filter id="filter0_d" x="0" y=".159" width="42" height="41.453" filterUnits="userSpaceOnUse" color-interpolation-filters="sRGB"><feFlood flood-opacity="0" result="BackgroundImageFix"/><feColorMatrix in="SourceAlpha" values="0 0 0 0 0 0 0 0 0 0 0 0 0 0 0 0 0 0 127 0"/><feOffset dy="4"/><feGaussianBlur stdDeviation="2"/><feColorMatrix values="0 0 0 0 0 0 0 0 0 0 0 0 0 0 0 0 0 0 0.25 0"/><feBlend in2="BackgroundImageFix" result="effect1_dropShadow"/><feBlend in="SourceGraphic" in2="effect1_dropShadow" result="shape"/></filter></defs></svg>